<?xml version="1.0" encoding="utf-8"?>
<!-- Generator: Adobe Illustrator 24.1.3, SVG Export Plug-In . SVG Version: 6.00 Build 0)  -->
<svg version="1.1" id="Layer_1" xmlns="http://www.w3.org/2000/svg" xmlns:xlink="http://www.w3.org/1999/xlink" x="0px" y="0px"
	 viewBox="0 0 32 32" style="enable-background:new 0 0 32 32;" xml:space="preserve">
<style type="text/css">
	.Black{fill:#404040;}
	.Yellow{fill:#FCB01B;}
	.Green{fill:#129C49;}
	.Blue{fill:#387CB7;}
	.Red{fill:#D02127;}
	.White{fill:#FFFFFF;}
	.st0{opacity:0.5;}
	.st1{opacity:0.75;}
	.st2{opacity:0.25;}
	.st3{display:none;fill:#737374;}
</style>
<path id="Print" class="Black" d="M10,4h12v8h2V2H8v10h2V4z M28,10h-2v3c0,0.6-0.4,1-1,1H7c-0.6,0-1-0.4-1-1v-3H4c-1.1,0-2,0.9-2,2
	v12c0,1.1,0.9,2,2,2h4v4h16v-4h4c1.1,0,2-0.9,2-2V12C30,10.9,29.1,10,28,10z M22,28H10v-8h12V28z"/>
</svg>
