<?xml version="1.0" encoding="utf-8"?>
<!-- Generator: Adobe Illustrator 21.1.0, SVG Export Plug-In . SVG Version: 6.00 Build 0)  -->
<svg version="1.1" id="Layer_1" xmlns="http://www.w3.org/2000/svg" xmlns:xlink="http://www.w3.org/1999/xlink" x="0px" y="0px"
	 viewBox="0 0 16 16" enable-background="new 0 0 16 16" xml:space="preserve">
<g>
	<g>
		<g>
			<path fill="#404040" d="M7,4v4c0,0.6,0.4,1,1,1h3V7H9V4H7z"/>
			<path fill="#404040" d="M7,4v4c0,0.6,0.4,1,1,1h3V7H9V4H7z"/>
		</g>
		<g>
			<path fill="#404040" d="M8,1C5.8,1,3.9,2,2.6,3.6L1,2v5h0.1h2H6L4,5c0.9-1.2,2.4-2,4-2c2.8,0,5,2.2,5,5c0,2.8-2.2,5-5,5
				s-5-2.2-5-5H1c0,3.9,3.1,7,7,7s7-3.1,7-7C15,4.1,11.9,1,8,1z"/>
			<path fill="#404040" d="M8,1C5.8,1,3.9,2,2.6,3.6L1,2v5h0.1h2H6L4,5c0.9-1.2,2.4-2,4-2c2.8,0,5,2.2,5,5c0,2.8-2.2,5-5,5
				s-5-2.2-5-5H1c0,3.9,3.1,7,7,7s7-3.1,7-7C15,4.1,11.9,1,8,1z"/>
		</g>
	</g>
	<g>
		<g>
			<path fill="#404040" d="M7,4v4c0,0.6,0.4,1,1,1h3V7H9V4H7z"/>
		</g>
		<g>
			<path fill="#404040" d="M8,1C5.8,1,3.9,2,2.6,3.6L1,2v5h0.1h2H6L4,5c0.9-1.2,2.4-2,4-2c2.8,0,5,2.2,5,5c0,2.8-2.2,5-5,5
				s-5-2.2-5-5H1c0,3.9,3.1,7,7,7s7-3.1,7-7C15,4.1,11.9,1,8,1z"/>
		</g>
	</g>
</g>
</svg>
